<?xml version="1.0" encoding="UTF-8"?>
<svg id="Layer_1" xmlns="http://www.w3.org/2000/svg" version="1.1" viewBox="0 0 24 24">
  <!-- Generator: Adobe Illustrator 30.3.0, SVG Export Plug-In . SVG Version: 2.1.3 Build 182)  -->
  <defs>
    <style>
      .st0 {
        fill: #946cc2;
      }
    </style>
  </defs>
  <path class="st0" d="M18.9,11.5c0-.2-.1-.4-.3-.4-.9-.5-1.8-.9-2.9-1.3-1.9-.7-3.4-2.2-4.1-4.2-.4-1.1-.8-2-1.3-3,0-.2-.3-.3-.4-.3s-.4.1-.4.3c-.4.9-.9,1.9-1.3,2.9-.7,1.9-2.2,3.4-4.1,4.2-1.1.4-2,.8-2.9,1.3-.2,0-.3.3-.3.4s.1.4.3.4c.9.5,1.8.9,2.9,1.3,1.9.7,3.4,2.2,4.1,4.2.4,1.1.8,2,1.3,3,0,.2.3.3.4.3s.4-.1.4-.3c.4-.9.9-1.9,1.3-2.9.7-1.9,2.2-3.4,4.1-4.2,1.1-.4,2-.8,2.9-1.3.2,0,.3-.3.3-.4ZM15.4,12.3c-2.2.8-3.8,2.5-4.7,4.8-.2.7-.5,1.3-.8,1.9-.3-.6-.5-1.2-.8-1.9-.8-2.2-2.5-3.9-4.7-4.8-.7-.3-1.3-.5-1.9-.8.6-.3,1.2-.5,1.9-.8,2.2-.8,3.8-2.5,4.7-4.8.2-.7.5-1.3.8-1.9.3.6.5,1.2.8,1.9.8,2.2,2.5,3.9,4.7,4.7.7.3,1.3.5,1.9.8-.6.3-1.2.5-1.9.8h0Z"/>
  <path class="st0" d="M17.6,5.8c.2.1.5.2.7.3.4.1.6.4.8.8,0,.2.2.5.3.8,0,.2.3.3.4.3h0c.2,0,.4-.1.4-.3.1-.3.2-.5.3-.8.1-.4.4-.6.8-.8.2,0,.5-.2.7-.3.2,0,.3-.3.3-.4s-.1-.4-.3-.4c-.2-.1-.5-.2-.7-.3-.4-.1-.6-.4-.8-.8,0-.2-.2-.5-.3-.8,0-.2-.3-.3-.4-.3h0c-.2,0-.4.1-.4.3-.1.3-.2.5-.3.7-.1.4-.4.6-.8.8-.2,0-.5.2-.7.3-.2,0-.3.3-.3.4s.1.4.3.4h0ZM19.9,4.5c.2.4.5.6.8.8-.3.2-.6.5-.8.8-.2-.4-.5-.6-.8-.8.3-.2.6-.5.8-.8h0Z"/>
  <path class="st0" d="M22.7,18c-.3-.2-.6-.3-.9-.4-.5-.2-.9-.6-1.1-1.1-.1-.3-.2-.6-.4-.9-.2-.3-.7-.3-.9,0-.2.3-.3.6-.4.9-.2.5-.6.9-1.1,1.1-.3.1-.6.2-.9.4-.2,0-.3.3-.3.4s.1.4.3.4c.3.2.6.3.9.4.5.2.9.6,1.1,1.1.1.3.2.6.4.9,0,.2.3.3.4.3s.4-.1.4-.3c.2-.3.3-.6.4-.9.2-.5.6-.9,1.1-1.1.3-.1.6-.2.9-.4.2,0,.3-.3.3-.4s-.1-.4-.3-.4ZM19.9,19.8c-.3-.6-.8-1.1-1.4-1.4.6-.3,1.1-.8,1.4-1.4.3.6.8,1.1,1.4,1.4-.6.3-1.1.8-1.4,1.4Z"/>
</svg>